<svg xmlns="http://www.w3.org/2000/svg"  viewBox="0 0 64 64" width="64px" height="64px"><path fill="#ed7899" d="M45,43V60.09A2,2,0,0,1,42.28,62l-8.84-3.4a4.08,4.08,0,0,0-2.88,0L21.72,62A2,2,0,0,1,19,60.09V43Z"/><path fill="#f6d397" d="M33.26,2l3.33,2.7a2,2,0,0,0,1.57.42l4.24-.67a2,2,0,0,1,2.18,1.26l1.54,4a2,2,0,0,0,1.15,1.15l4,1.54a2,2,0,0,1,1.26,2.18l-.67,4.24a2,2,0,0,0,.42,1.57L55,23.74a2,2,0,0,1,0,2.52l-2.7,3.33a2,2,0,0,0-.42,1.57l.67,4.24a2,2,0,0,1-1.26,2.18l-4,1.54a2,2,0,0,0-1.15,1.15l-1.54,4a2,2,0,0,1-2.18,1.26l-4.24-.67a2,2,0,0,0-1.57.42L33.26,48a2,2,0,0,1-2.52,0l-3.33-2.7a2,2,0,0,0-1.57-.42l-4.24.67a2,2,0,0,1-2.18-1.26l-1.54-4a2,2,0,0,0-1.15-1.15l-4-1.54a2,2,0,0,1-1.26-2.18l.67-4.24a2,2,0,0,0-.42-1.57L9,26.26a2,2,0,0,1,0-2.52l2.7-3.33a2,2,0,0,0,.42-1.57l-.67-4.24a2,2,0,0,1,1.26-2.18l4-1.54a2,2,0,0,0,1.15-1.15l1.54-4A2,2,0,0,1,21.6,4.47l4.24.67a2,2,0,0,0,1.57-.42L30.74,2A2,2,0,0,1,33.26,2Z"/><path fill="#e0678f" d="M45,43.18v5l-.42,1.09a2,2,0,0,1-2.18,1.26l-4.24-.67a2,2,0,0,0-1.57.42L33.26,53a2,2,0,0,1-2.52,0l-3.33-2.7a2,2,0,0,0-1.57-.42l-4.24.67a2,2,0,0,1-2.18-1.26L19,48.18v-5l.42,1.09a2,2,0,0,0,2.18,1.26l4.24-.67a2,2,0,0,1,1.57.42L30.74,48a2,2,0,0,0,2.52,0l3.33-2.7a2,2,0,0,1,1.57-.42l4.24.67a2,2,0,0,0,2.18-1.26Z"/><path fill="#f9e3ae" d="M45,25A13,13,0,0,1,32,38a12.84,12.84,0,0,1-4.27-.72,13,13,0,0,1-5.86-4.15,13,13,0,0,1-1.56-2.44A13.3,13.3,0,0,1,19,25,13,13,0,0,1,32,12a13.3,13.3,0,0,1,5.69,1.31,13,13,0,0,1,2.44,1.56,13,13,0,0,1,4.15,5.86A12.84,12.84,0,0,1,45,25Z"/><path fill="#ffefca" d="M45 25A13 13 0 0 1 32 38a12.84 12.84 0 0 1-4.27-.72L44.28 20.73A12.84 12.84 0 0 1 45 25zM43 18L25 36a12.6 12.6 0 0 1-3.16-2.84L40.13 14.87A12.6 12.6 0 0 1 43 18zM37.69 13.31L20.31 30.69a12.81 12.81 0 0 1-1.17-3.83L33.86 12.14A12.81 12.81 0 0 1 37.69 13.31z"/><path fill="#fff8f8" d="M37.66 20.76L36.42 23.02 34.16 24.26 36.42 25.5 37.66 27.77 38.9 25.5 41.16 24.26 38.9 23.02 37.66 20.76zM27.74 16.77L26.89 18.33 25.32 19.18 26.89 20.04 27.74 21.6 28.6 20.04 30.16 19.18 28.6 18.33 27.74 16.77zM27.81 28.47L27.23 29.54 26.16 30.12 27.23 30.7 27.81 31.77 28.39 30.7 29.46 30.12 28.39 29.54 27.81 28.47z"/><path fill="#8d6c9f" d="M55.76,26.89a3,3,0,0,0,0-3.78l-2.7-3.33a1,1,0,0,1-.21-.79l.67-4.24a3,3,0,0,0-1.89-3.27l-4-1.54a1,1,0,0,1-.58-.58l-1.54-4a3,3,0,0,0-3.27-1.89L38,4.15a1,1,0,0,1-.79-.21l-3.33-2.7h0a3,3,0,0,0-3.78,0l-3.33,2.7a1,1,0,0,1-.79.21l-4.24-.67a3,3,0,0,0-3.27,1.89l-1.54,4a1,1,0,0,1-.58.58l-4,1.54a3,3,0,0,0-1.89,3.27L11.15,19a1,1,0,0,1-.21.79l-2.7,3.33a3,3,0,0,0,0,3.78l2.7,3.33a1,1,0,0,1,.21.79l-.67,4.24a3,3,0,0,0,1.89,3.27l4,1.54a1,1,0,0,1,.58.58L18,43.36V60.09a3,3,0,0,0,4.08,2.8l8.85-3.4a3,3,0,0,1,2.15,0l8.85,3.4A3,3,0,0,0,46,60.09V43.36l1.05-2.74a1,1,0,0,1,.58-.58l4-1.54a3,3,0,0,0,1.89-3.27L52.85,31a1,1,0,0,1,.21-.79Zm-12.19,34a1,1,0,0,1-.92.11l-8.85-3.4a5,5,0,0,0-3.59,0L21.36,61A1,1,0,0,1,20,60.09V46.25a3,3,0,0,0,1.76.27L26,45.85a1,1,0,0,1,.79.21l3.33,2.7a3,3,0,0,0,3.78,0l3.33-2.7a1,1,0,0,1,.79-.21l4.24.67A3,3,0,0,0,44,46.25V60.09A1,1,0,0,1,43.57,60.91ZM51.5,29a3,3,0,0,0-.63,2.36l.67,4.24a1,1,0,0,1-.63,1.09l-4,1.54a3,3,0,0,0-1.73,1.73l-1.54,4a1,1,0,0,1-1.09.63l-4.24-.67A3,3,0,0,0,36,44.5l-3.33,2.7a1,1,0,0,1-1.26,0L28,44.5a3,3,0,0,0-2.36-.63l-4.24.67a1,1,0,0,1-1.09-.63l-1.54-4a3,3,0,0,0-1.73-1.73l-4-1.54a1,1,0,0,1-.63-1.09l.67-4.24A3,3,0,0,0,12.5,29L9.8,25.63a1,1,0,0,1,0-1.26L12.5,21a3,3,0,0,0,.63-2.36l-.67-4.24a1,1,0,0,1,.63-1.09l4-1.54a3,3,0,0,0,1.73-1.73l1.54-4a1,1,0,0,1,1.09-.63l4.24.67A3,3,0,0,0,28,5.5l3.33-2.7a1,1,0,0,1,1.26,0L36,5.5a3,3,0,0,0,2.36.63l4.24-.67a1,1,0,0,1,1.09.63l1.54,4a3,3,0,0,0,1.73,1.73l4,1.54a1,1,0,0,1,.63,1.09l-.67,4.24A3,3,0,0,0,51.5,21l2.7,3.33a1,1,0,0,1,0,1.26Z"/><path fill="#8d6c9f" d="M33.34 11.06A14 14 0 0 0 18 25a1 1 0 0 0 2 0A12 12 0 0 1 33.15 13.06a1 1 0 0 0 1.09-.9A1 1 0 0 0 33.34 11.06zM42.65 17.47a1 1 0 0 0-.34 1.37 12.06 12.06 0 0 1 .83 10.66 1 1 0 1 0 1.86.75 14.08 14.08 0 0 0-1-12.43A1 1 0 0 0 42.65 17.47zM40.41 16.08a1 1 0 0 0 .65-1.76 14 14 0 0 0-2.51-1.7 1 1 0 1 0-.94 1.77 12 12 0 0 1 2.15 1.46A1 1 0 0 0 40.41 16.08zM41.19 32.78a1 1 0 0 0-1.41 1.41l1.41 1.41a1 1 0 0 0 1.41-1.41zM22.81 32.78l-1.41 1.41a1 1 0 1 0 1.41 1.41l1.41-1.41a1 1 0 0 0-1.41-1.41zM32 36a1 1 0 0 0-1 1v2a1 1 0 0 0 2 0V37A1 1 0 0 0 32 36zM27.7 35.13a1 1 0 0 0-1.31.53l-.78 1.84a1 1 0 1 0 1.84.78l.78-1.84A1 1 0 0 0 27.7 35.13zM21.8 29.12a1 1 0 0 0-1.3-.55l-1.85.75a1 1 0 1 0 .75 1.85l1.85-.75A1 1 0 0 0 21.8 29.12zM37.42 35.75a1 1 0 1 0-1.85.75l.75 1.85a1 1 0 1 0 1.85-.75z"/></svg>